<svg width="495" height="100" viewBox="0 0 495 100" fill="none" xmlns="http://www.w3.org/2000/svg">
<path d="M0 10.7H14.2V85.2H53.5V98.3H0V10.7ZM67.5 10.7C72.3 10.7 76.4 14.4 76.4 19.3C76.4 24.2 72.4 28.1 67.5 28.1C62.6 28.1 58.6 24.2 58.6 19.3C58.6 14.5 62.5 10.7 67.5 10.7ZM60.5 35.2H74.1V98.4H60.5V35.2ZM82.2 35.2H95.8V43.9C99.8 37.2 106.7 33.5 115.9 33.5C130.7 33.5 139.9 45 139.9 63.2V98.3H126.3V64.5C126.3 52.7 121.1 46 111.8 46C101.5 46 95.9 53 95.9 65.6V98.3H82.2V35.2ZM147.1 10.7H160.7V66.1L186.1 35.2H203.2L176.1 66.8L203.2 98.3H186.1L160.7 67.5V98.3H147.1V10.7ZM208.6 19.1H222.5V35.2H238.7V46.5H222.5V79C222.5 83.1 225 85.7 229 85.7H238.1V98.4H227.2C215.4 98.4 208.7 91.4 208.7 79L208.6 19.1ZM245.6 35.2H258.2V43C261.6 37 267.2 33.5 274.1 33.5C276.2 33.5 277.3 33.6 278.9 34.1V46.7C278 46.5 276.6 46.2 273.8 46.2C263.8 46.2 258.3 54.6 258.3 69V98.2H244.7V35.2H245.6ZM310.8 33.5C325.8 33.5 342.1 42.5 342.1 68.2V70H293.3C294.4 81.3 300.9 87.5 311.9 87.5C319.8 87.5 326.4 83.3 327.9 77.4H341.8C340.3 90 327.1 100 311.8 100C292.2 100 279.8 87.3 279.8 66.7C279.8 48.4 291.7 33.5 310.8 33.5ZM327.5 58.8C325.6 51 319.4 46.1 310.8 46.1C302.5 46.1 296.6 51.1 294.3 58.8H327.5ZM379.1 33.5C394.1 33.5 410.4 42.5 410.4 68.2V70H361.6C362.7 81.3 369.2 87.5 380.2 87.5C388.1 87.5 394.7 83.3 396.2 77.4H410C408.6 90 395.4 100 380.1 100C360.5 100 348.1 87.3 348.1 66.7C348.1 48.4 360 33.5 379.1 33.5ZM395.8 58.8C393.9 51 387.7 46.1 379 46.1C370.7 46.1 364.8 51.1 362.5 58.8H395.8ZM413.7 33.3H438L420.7 16.9L430.2 7.2L446.7 24V0H461V24L477.5 7.2L487 16.9L469.7 33.3H494V46.9H469.5L487 63.7L477.5 73.2L453.8 49.5L430.1 73.2L420.6 63.7L438 46.8H413.5V33.3H413.7ZM446.8 66.2H461.1V98.4H446.8V66.2Z" fill="white"/>
</svg>
